<?xml version="1.0" encoding="utf-8"?>
<!-- Generator: Adobe Illustrator 16.0.3, SVG Export Plug-In . SVG Version: 6.00 Build 0)  -->
<!DOCTYPE svg PUBLIC "-//W3C//DTD SVG 1.1//EN" "http://www.w3.org/Graphics/SVG/1.1/DTD/svg11.dtd">
<svg version="1.1" id="Layer_1" xmlns="http://www.w3.org/2000/svg" xmlns:xlink="http://www.w3.org/1999/xlink" x="0px" y="0px"
	 width="169.666px" height="292px" viewBox="0 0 169.666 292" enable-background="new 0 0 169.666 292" xml:space="preserve">
<g>
	<rect x="44.609" y="230.301" fill="#6D6E70" width="3.431" height="10.316"/>
	<path fill="#6D6E70" d="M46.324,228.891h-0.022c-1.15,0-1.895-0.793-1.895-1.783c0-1.012,0.768-1.783,1.939-1.783
		c1.174,0,1.896,0.771,1.918,1.783C48.264,228.098,47.52,228.891,46.324,228.891z"/>
	<path fill="#6D6E70" d="M60.408,240.617h-3.43v-5.52c0-1.387-0.496-2.334-1.738-2.334c-0.947,0-1.513,0.641-1.761,1.256
		c-0.091,0.221-0.113,0.525-0.113,0.836v5.762h-3.429c0,0,0.044-9.35,0-10.316h3.429v1.461c0.457-0.705,1.272-1.703,3.093-1.703
		c2.256,0,3.949,1.473,3.949,4.643V240.617z"/>
</g>
<path fill="#6D6E70" d="M62.858,165.026c-0.608-1.915-1.432-2.313-3.654-2.74c-1.529-0.292-4.242-0.538-6.797-0.538
	s-5.268,0.246-6.797,0.538c-2.222,0.427-3.046,0.826-3.654,2.74c-0.486,1.537-0.689,3.182-0.689,5.098s0.203,3.563,0.689,5.098
	c0.608,1.915,1.432,2.313,3.654,2.74c1.529,0.292,4.242,0.538,6.797,0.538s5.268-0.246,6.797-0.538
	c2.222-0.427,3.046-0.826,3.654-2.74c0.486-1.536,0.689-3.182,0.689-5.098S63.345,166.563,62.858,165.026z M56.708,170.583
	l-6.488,4.166c-0.394,0.253-0.716,0.077-0.716-0.391v-8.468c0-0.468,0.322-0.644,0.716-0.391l6.488,4.166
	C57.102,169.917,57.102,170.332,56.708,170.583z"/>
<path fill="#6D6E70" d="M62.211,101.423c-0.721,0.319-1.497,0.535-2.311,0.633c0.832-0.497,1.467-1.287,1.77-2.226
	c-0.778,0.461-1.638,0.797-2.555,0.977c-0.732-0.781-1.778-1.271-2.936-1.271c-2.22,0-4.021,1.802-4.021,4.023
	c0,0.314,0.035,0.621,0.104,0.916c-3.345-0.169-6.308-1.769-8.291-4.204c-0.347,0.595-0.545,1.287-0.545,2.024
	c0,1.396,0.709,2.625,1.789,3.348c-0.658-0.021-1.279-0.202-1.821-0.504c0,0.017,0,0.034,0,0.051c0,1.949,1.386,3.575,3.226,3.944
	c-0.337,0.091-0.693,0.141-1.06,0.141c-0.259,0-0.511-0.024-0.757-0.074c0.512,1.599,1.997,2.762,3.757,2.794
	c-1.376,1.078-3.109,1.722-4.995,1.722c-0.325,0-0.645-0.02-0.96-0.057c1.78,1.142,3.895,1.806,6.167,1.806
	c7.399,0,11.443-6.129,11.443-11.443c0-0.174-0.004-0.349-0.01-0.522C60.99,102.939,61.672,102.23,62.211,101.423z"/>
<path fill="#6D6E70" d="M56.794,41.477h-2.988v-1.96c0-0.737,0.487-0.906,0.831-0.906s2.108,0,2.108,0v-3.235l-2.903-0.011
	c-3.223,0-3.957,2.413-3.957,3.956v2.158h-1.865v3.333h1.865c0,4.276,0,9.433,0,9.433h3.919c0,0,0-5.205,0-9.433h2.646
	L56.794,41.477z"/>
<g>
	<rect x="115.387" y="230.301" fill="#D12B3F" width="3.431" height="10.316"/>
	<path fill="#D12B3F" d="M117.102,228.891h-0.022c-1.15,0-1.895-0.793-1.895-1.783c0-1.012,0.768-1.783,1.939-1.783
		c1.174,0,1.896,0.771,1.918,1.783C119.042,228.098,118.298,228.891,117.102,228.891z"/>
	<path fill="#D12B3F" d="M131.186,240.617h-3.43v-5.52c0-1.387-0.496-2.334-1.738-2.334c-0.947,0-1.513,0.641-1.761,1.256
		c-0.091,0.221-0.113,0.525-0.113,0.836v5.762h-3.429c0,0,0.044-9.35,0-10.316h3.429v1.461c0.457-0.705,1.272-1.703,3.093-1.703
		c2.256,0,3.949,1.473,3.949,4.643V240.617z"/>
</g>
<path fill="#D12B3F" d="M133.637,165.026c-0.608-1.915-1.432-2.313-3.654-2.74c-1.529-0.292-4.242-0.538-6.797-0.538
	s-5.268,0.246-6.797,0.538c-2.222,0.427-3.046,0.826-3.654,2.74c-0.486,1.537-0.689,3.182-0.689,5.098s0.203,3.563,0.689,5.098
	c0.608,1.915,1.432,2.313,3.654,2.74c1.529,0.292,4.242,0.538,6.797,0.538s5.268-0.246,6.797-0.538
	c2.222-0.427,3.046-0.826,3.654-2.74c0.486-1.536,0.689-3.182,0.689-5.098S134.123,166.563,133.637,165.026z M127.486,170.583
	l-6.488,4.166c-0.394,0.253-0.716,0.077-0.716-0.391v-8.468c0-0.468,0.322-0.644,0.716-0.391l6.488,4.166
	C127.88,169.917,127.88,170.332,127.486,170.583z"/>
<path fill="#D12B3F" d="M132.989,101.423c-0.721,0.319-1.497,0.535-2.311,0.633c0.832-0.497,1.467-1.287,1.77-2.226
	c-0.778,0.461-1.638,0.797-2.555,0.977c-0.732-0.781-1.778-1.271-2.936-1.271c-2.22,0-4.021,1.802-4.021,4.023
	c0,0.314,0.035,0.621,0.104,0.916c-3.345-0.169-6.308-1.769-8.291-4.204c-0.347,0.595-0.545,1.287-0.545,2.024
	c0,1.396,0.709,2.625,1.789,3.348c-0.658-0.021-1.279-0.202-1.821-0.504c0,0.017,0,0.034,0,0.051c0,1.949,1.386,3.575,3.226,3.944
	c-0.337,0.091-0.693,0.141-1.06,0.141c-0.259,0-0.511-0.024-0.757-0.074c0.512,1.599,1.997,2.762,3.757,2.794
	c-1.376,1.078-3.109,1.722-4.995,1.722c-0.325,0-0.645-0.02-0.96-0.057c1.78,1.142,3.895,1.806,6.167,1.806
	c7.399,0,11.443-6.129,11.443-11.443c0-0.174-0.004-0.349-0.01-0.522C131.769,102.939,132.45,102.23,132.989,101.423z"/>
<path fill="#D12B3F" d="M127.572,41.477h-2.988v-1.96c0-0.737,0.487-0.906,0.831-0.906s2.108,0,2.108,0v-3.235l-2.903-0.011
	c-3.223,0-3.957,2.413-3.957,3.956v2.158h-1.865v3.333h1.865c0,4.276,0,9.433,0,9.433h3.919c0,0,0-5.205,0-9.433h2.646
	L127.572,41.477z"/>
</svg>
